<svg width="1109" height="161" viewBox="0 0 1109 161" fill="none" xmlns="http://www.w3.org/2000/svg">
<path d="M151.528 54.6094L107.371 53.959L89.7935 8.70677C86.4047 0.354416 74.5783 0.354416 71.2064 8.70677L53.6292 53.959L9.47216 54.6094C0.332674 55.1401 -3.38131 66.6242 3.70436 72.392L39.5092 103.439L27.3061 145.833C24.91 154.544 34.3404 161.733 42.1107 157.112L80.5 136.111L118.889 157.095C126.659 161.716 136.09 154.528 133.694 145.816L121.491 103.422L157.296 72.3751C164.381 66.6073 160.667 55.1228 151.528 54.6094Z" fill="#191919"/>
<path d="M388.528 54.6094L344.371 53.959L326.793 8.70677C323.405 0.354416 311.578 0.354416 308.206 8.70677L290.629 53.959L246.472 54.6094C237.333 55.1401 233.619 66.6242 240.704 72.392L276.509 103.439L264.306 145.833C261.91 154.544 271.34 161.733 279.111 157.112L317.5 136.111L355.889 157.095C363.659 161.716 373.09 154.528 370.694 145.816L358.491 103.422L394.296 72.3751C401.381 66.6073 397.667 55.1228 388.528 54.6094Z" fill="#191919"/>
<path d="M625.528 54.6094L581.371 53.959L563.793 8.70677C560.405 0.354416 548.578 0.354416 545.206 8.70677L527.629 53.959L483.472 54.6094C474.333 55.1401 470.619 66.6242 477.704 72.392L513.509 103.439L501.306 145.833C498.91 154.544 508.34 161.733 516.111 157.112L554.5 136.111L592.889 157.095C600.659 161.716 610.09 154.528 607.694 145.816L595.491 103.422L631.296 72.3751C638.381 66.6073 634.667 55.1228 625.528 54.6094Z" fill="#191919"/>
<path d="M1099.53 54.6094L1055.37 53.959L1037.79 8.70677C1034.4 0.354416 1022.58 0.354416 1019.21 8.70677L1001.63 53.959L957.472 54.6094C948.333 55.1401 944.619 66.6242 951.704 72.392L987.509 103.439L975.306 145.833C972.91 154.544 982.341 161.733 990.111 157.112L1028.5 136.111L1066.89 157.095C1074.66 161.716 1084.09 154.528 1081.69 145.816L1069.49 103.422L1105.3 72.3751C1112.38 66.6073 1108.67 55.1228 1099.53 54.6094Z" fill="#191919"/>
<path d="M862.528 54.6094L818.371 53.959L800.793 8.70677C797.405 0.354416 785.578 0.354416 782.206 8.70677L764.629 53.959L720.472 54.6094C711.333 55.1401 707.619 66.6242 714.704 72.392L750.509 103.439L738.306 145.833C735.91 154.544 745.34 161.733 753.111 157.112L791.5 136.111L829.889 157.095C837.659 161.716 847.09 154.528 844.694 145.816L832.491 103.422L868.296 72.3751C875.381 66.6073 871.667 55.1228 862.528 54.6094Z" fill="#191919"/>
</svg>
